<mxfile host="app.diagrams.net" modified="2023-12-29T13:53:30.854Z" agent="Mozilla/5.0 (X11; Linux x86_64) AppleWebKit/537.36 (KHTML, like Gecko) Chrome/119.0.0.0 Safari/537.36" version="22.1.16" etag="0Au4KPTe1zaYXK_WSm6K" type="github">
  <diagram name="Page-1" id="sgQDhELLgrrRd595pOC-">
    <mxGraphModel>
      <root>
        <mxCell id="0" />
        <mxCell id="1" parent="0" />
      </root>
    </mxGraphModel>
  </diagram>
</mxfile>
